<svg xmlns="http://www.w3.org/2000/svg" version="1.1" xmlns:xlink="http://www.w3.org/1999/xlink" xmlns:svgjs="http://svgjs.dev/svgjs" width="1500" height="507" viewBox="0 0 1500 507"><g transform="matrix(1,0,0,1,-0.9090909090909918,-0.4360107076772124)"><svg viewBox="0 0 396 134" data-background-color="#ffffff" preserveAspectRatio="xMidYMid meet" height="507" width="1500" xmlns="http://www.w3.org/2000/svg" xmlns:xlink="http://www.w3.org/1999/xlink"><g id="tight-bounds" transform="matrix(1,0,0,1,0.2400000000000091,0.11523754404092301)"><svg viewBox="0 0 395.52 133.76952491191815" height="133.76952491191815" width="395.52"><g><svg viewBox="0 0 397.4976 134.43837253647774" height="133.76952491191815" width="395.52"><g><svg viewBox="0 0 397.4976 134.43837253647774" height="134.43837253647774" width="397.4976"><g id="textblocktransform"><svg viewBox="0 0 397.4976 134.43837253647774" height="134.43837253647774" width="397.4976" id="textblock"><g><rect width="397.4976" height="6.977803021085615" x="0" y="85.5954314515743" fill="#4b6b77" opacity="1" stroke-width="0" stroke="transparent" fill-opacity="1" class="rect-yte-0" data-fill-palette-color="primary" rx="1%" id="yte-0" data-palette-color="#4b6b77"></rect></g><g transform="matrix(1,0,0,1,0.9887999999999693,0)"><svg viewBox="0 0 395.52000000000004 77.37550642673523" height="77.37550642673523" width="395.52000000000004"><g transform="matrix(1,0,0,1,0,0)"><svg width="395.52000000000004" viewBox="3.85 -37.6 194.48000000000002 38.050000000000004" height="77.37550642673523" data-palette-color="#4b6b77"><path d="M14.8 0.3L14.8 0.3Q9.4 0.3 6.63-2.25 3.85-4.8 3.85-9.75L3.85-9.75 3.85-34Q3.85-34.55 4.33-34.83 4.8-35.1 5.9-35.1L5.9-35.1 6.3-35.1Q7.45-35.1 7.9-34.83 8.35-34.55 8.35-34L8.35-34 8.35-9.4Q8.35-6.5 10.05-5 11.75-3.5 14.8-3.5L14.8-3.5Q17.8-3.5 19.5-5 21.2-6.5 21.2-9.4L21.2-9.4 21.2-34Q21.2-35.1 23.25-35.1L23.25-35.1 23.65-35.1Q24.8-35.1 25.25-34.83 25.7-34.55 25.7-34L25.7-34 25.7-9.75Q25.7-4.8 22.93-2.25 20.15 0.3 14.8 0.3ZM35.3 0.1L35.1 0.1Q33.1 0.1 33.1-1L33.1-1 33.1-18.65Q33.1-21.75 32.85-23.18 32.6-24.6 32.6-25.1L32.6-25.1Q32.6-25.65 33.65-25.88 34.7-26.1 35.5-26.1L35.5-26.1Q36.2-26.1 36.47-25.38 36.75-24.65 37.1-22.75L37.1-22.75Q38.4-24.5 40.1-25.48 41.8-26.45 43.35-26.45L43.35-26.45Q44.2-26.45 44.5-26.05 44.8-25.65 44.8-24.85L44.8-24.85Q44.8-23.75 44.5-22.93 44.2-22.1 43.75-22.1L43.75-22.1Q43.4-22.1 42.92-22.23 42.45-22.35 41.5-22.35L41.5-22.35Q40.1-22.35 38.95-21.48 37.8-20.6 37.4-19.3L37.4-19.3 37.4-1Q37.4 0.1 35.3 0.1L35.3 0.1ZM57.95 0.3L57.95 0.3Q56.25 0.3 54.67-0.63 53.1-1.55 51.85-3.45L51.85-3.45Q51.7-2.15 51.4-1L51.4-1Q51.2-0.3 50.77-0.1 50.35 0.1 49.8 0.1L49.8 0.1 49.5 0.1Q47.85 0.1 47.85-1L47.85-1 47.85-36.5Q47.85-37.05 48.27-37.33 48.7-37.6 49.8-37.6L49.8-37.6 50.2-37.6Q51.3-37.6 51.72-37.33 52.15-37.05 52.15-36.5L52.15-36.5 52.15-23.9Q53.15-25 54.4-25.73 55.65-26.45 57.55-26.45L57.55-26.45Q61.2-26.45 63.47-23.03 65.75-19.6 65.75-13.25L65.75-13.25Q65.75-9.2 64.77-6.15 63.8-3.1 62.05-1.4 60.3 0.3 57.95 0.3ZM56.9-3.35L56.9-3.35Q59.1-3.35 60.22-5.98 61.35-8.6 61.35-13.3L61.35-13.3Q61.35-17.9 60.17-20.33 59-22.75 56.5-22.75L56.5-22.75Q55.25-22.75 54.12-22.2 53-21.65 52.15-20.5L52.15-20.5 52.15-6.8Q54.25-3.35 56.9-3.35ZM76.99 0.3L76.99 0.3Q73.79 0.3 71.87-1.68 69.94-3.65 69.94-7.45L69.94-7.45Q69.94-10.45 71.17-12.28 72.39-14.1 74.37-15.03 76.34-15.95 78.69-16.25 81.04-16.55 83.29-16.55L83.29-16.55 83.29-18.95Q83.29-20.5 82.37-21.68 81.44-22.85 79.04-22.85L79.04-22.85Q77.19-22.85 75.67-22.45 74.14-22.05 73.19-21.63 72.24-21.2 71.94-21.2L71.94-21.2Q71.44-21.2 71.14-22.15 70.84-23.1 70.84-23.7L70.84-23.7Q70.84-24.15 72.09-24.8 73.34-25.45 75.24-25.95 77.14-26.45 79.09-26.45L79.09-26.45Q83.09-26.45 85.34-24.45 87.59-22.45 87.59-18.9L87.59-18.9 87.59-7.4Q87.59-4.35 87.84-2.93 88.09-1.5 88.09-1.15L88.09-1.15Q88.09-0.55 87.04-0.25 85.99 0.05 85.19 0.05L85.19 0.05Q84.54 0.05 84.27-0.68 83.99-1.4 83.64-3.15L83.64-3.15Q82.39-1.55 80.77-0.63 79.14 0.3 76.99 0.3ZM77.79-3.25L77.79-3.25Q79.54-3.25 80.92-4.1 82.29-4.95 83.29-6.5L83.29-6.5 83.29-13Q78.39-13 76.37-11.88 74.34-10.75 74.34-7.5L74.34-7.5Q74.34-3.25 77.79-3.25ZM97.14 0.1L96.74 0.1Q95.64 0.1 95.22-0.2 94.79-0.5 94.79-1L94.79-1 94.79-18.65Q94.79-21.75 94.54-23.18 94.29-24.6 94.29-25.1L94.29-25.1Q94.29-25.65 95.34-25.88 96.39-26.1 97.19-26.1L97.19-26.1Q97.89-26.1 98.17-25.35 98.44-24.6 98.79-22.7L98.79-22.7Q100.04-24.45 101.72-25.45 103.39-26.45 105.39-26.45L105.39-26.45Q107.14-26.45 108.64-25.75 110.14-25.05 111.07-23.55 111.99-22.05 111.99-19.6L111.99-19.6 111.99-1Q111.99-0.5 111.57-0.2 111.14 0.1 110.04 0.1L110.04 0.1 109.64 0.1Q108.54 0.1 108.12-0.2 107.69-0.5 107.69-1L107.69-1 107.69-18.75Q107.69-20.65 106.77-21.73 105.84-22.8 103.94-22.8L103.94-22.8Q102.64-22.8 101.59-22.18 100.54-21.55 99.92-20.73 99.29-19.9 99.09-19.3L99.09-19.3 99.09-1Q99.09-0.5 98.67-0.2 98.24 0.1 97.14 0.1L97.14 0.1ZM121.99 0.1L121.59 0.1Q120.49 0.1 120.01-0.2 119.54-0.5 119.54-1L119.54-1 119.54-34Q119.54-35.1 121.54-35.1L121.54-35.1 122.59-35.1Q123.44-35.1 123.94-34.9 124.44-34.7 124.69-34.15L124.69-34.15 135.09-12.2Q135.44-11.55 135.79-10.58 136.14-9.6 136.34-8.8L136.34-8.8 136.54-8.85Q136.49-9.35 136.41-10.33 136.34-11.3 136.34-12.25L136.34-12.25 136.34-34Q136.34-34.55 136.81-34.83 137.29-35.1 138.39-35.1L138.39-35.1 138.79-35.1Q139.94-35.1 140.39-34.83 140.84-34.55 140.84-34L140.84-34 140.84-1Q140.84 0.1 138.84 0.1L138.84 0.1 137.59 0.1Q136.14 0.1 135.69-0.8L135.69-0.8 125.24-22.8Q124.94-23.45 124.61-24.4 124.29-25.35 124.04-26.2L124.04-26.2 123.84-26.15Q123.94-25.5 123.99-24.55 124.04-23.6 124.04-22.75L124.04-22.75 124.04-1Q124.04-0.5 123.59-0.2 123.14 0.1 121.99 0.1L121.99 0.1ZM157.24 0.3L157.24 0.3Q152.24 0.3 149.69-2.95 147.13-6.2 147.13-12.9L147.13-12.9Q147.13-19.55 149.63-23 152.13-26.45 156.99-26.45L156.99-26.45Q161.34-26.45 163.53-23.1 165.74-19.75 165.74-13.35L165.74-13.35Q165.74-11.35 163.99-11.35L163.99-11.35 151.53-11.35Q151.69-7.2 153.09-5.25 154.49-3.3 157.53-3.3L157.53-3.3Q159.28-3.3 160.63-3.8 161.99-4.3 162.86-4.78 163.74-5.25 163.99-5.25L163.99-5.25Q164.49-5.25 164.81-4.38 165.13-3.5 165.13-2.9L165.13-2.9Q165.13-2.45 164.09-1.68 163.03-0.9 161.26-0.3 159.49 0.3 157.24 0.3ZM151.59-14.95L151.59-14.95 161.49-14.95Q161.49-22.85 156.84-22.85L156.84-22.85Q151.74-22.85 151.59-14.95ZM175.98 0.45L175.98 0.45Q174.08 0.45 172.53-0.1 170.98-0.65 170.08-1.38 169.18-2.1 169.18-2.65L169.18-2.65Q169.18-3 169.48-3.6 169.78-4.2 170.21-4.7 170.63-5.2 170.88-5.2L170.88-5.2Q171.08-5.2 171.71-4.73 172.33-4.25 173.36-3.75 174.38-3.25 175.78-3.25L175.78-3.25Q177.58-3.25 178.58-4.15 179.58-5.05 179.58-6.9L179.58-6.9Q179.58-8.7 178.41-9.83 177.23-10.95 175.18-11.9L175.18-11.9Q172.58-13.15 171.18-14.83 169.78-16.5 169.78-19.4L169.78-19.4Q169.78-22.6 171.88-24.55 173.98-26.5 177.13-26.5L177.13-26.5Q178.48-26.5 179.76-26.2 181.03-25.9 181.86-25.43 182.68-24.95 182.68-24.35L182.68-24.35Q182.68-24 182.41-23.35 182.13-22.7 181.78-22.18 181.43-21.65 181.13-21.65L181.13-21.65Q180.93-21.65 179.96-22.28 178.98-22.9 177.38-22.9L177.38-22.9Q175.98-22.9 174.98-22.13 173.98-21.35 173.98-19.85L173.98-19.85Q173.98-18.15 175.08-17.13 176.18-16.1 177.73-15.35L177.73-15.35Q180.63-13.95 182.16-12.13 183.68-10.3 183.68-7L183.68-7Q183.68-4.7 182.63-3.03 181.58-1.35 179.86-0.45 178.13 0.45 175.98 0.45ZM194.88 0.3L194.88 0.3Q193.83 0.3 192.53-0.15 191.23-0.6 190.31-1.93 189.38-3.25 189.38-5.8L189.38-5.8 189.38-22.55 187.38-22.55Q186.38-22.55 186.38-24.05L186.38-24.05 186.38-24.65Q186.38-26.15 187.38-26.15L187.38-26.15 189.38-26.15 189.98-31.4Q190.13-32.5 191.53-32.5L191.53-32.5 191.93-32.5Q192.93-32.5 193.31-32.23 193.68-31.95 193.68-31.4L193.68-31.4 193.68-26.15 197.03-26.15Q198.03-26.15 198.03-24.65L198.03-24.65 198.03-24.05Q198.03-22.55 197.03-22.55L197.03-22.55 193.68-22.55 193.68-6.3Q193.68-4.55 194.06-3.93 194.43-3.3 195.53-3.3L195.53-3.3Q196.43-3.3 196.85-3.43 197.28-3.55 197.53-3.55L197.53-3.55Q197.88-3.55 198.06-3.05 198.23-2.55 198.28-1.98 198.33-1.4 198.33-1.15L198.33-1.15Q198.33-0.65 197.73-0.33 197.13 0 196.33 0.15 195.53 0.3 194.88 0.3Z" opacity="1" transform="matrix(1,0,0,1,0,0)" fill="#4b6b77" class="wordmark-text-0" data-fill-palette-color="primary" id="text-0"></path></svg></g></svg></g><g transform="matrix(1,0,0,1,0,100.79315949749899)"><svg viewBox="0 0 395.52000000000004 33.64521303897876" height="33.64521303897876" width="395.52000000000004"><g transform="matrix(1,0,0,1,0,0)"><svg width="395.52000000000004" viewBox="3.8 -35.75 514.845454541992 43.8" height="33.64521303897876" data-palette-color="#8cb0bc"><path d="M8.5-0.05L3.8-0.05 3.8-33.4 14.25-33.4Q18.35-33.4 21.48-32.6 24.6-31.8 26.38-29.63 28.15-27.45 28.15-23.3L28.15-23.3Q28.15-19.2 26.38-17.03 24.6-14.85 21.48-14.08 18.35-13.3 14.25-13.3L14.25-13.3 8.5-13.3 8.5-0.05ZM8.5-29.45L8.5-17.35 14.65-17.35Q17.1-17.35 19.05-17.7 21-18.05 22.18-19.33 23.35-20.6 23.35-23.3L23.35-23.3Q23.35-26.05 22.18-27.35 21-28.65 19.05-29.05 17.1-29.45 14.65-29.45L14.65-29.45 8.5-29.45ZM41.25 0L39.4 0Q37.05 0 35.77-0.48 34.5-0.95 34.02-2.3 33.55-3.65 33.55-6.2L33.55-6.2 33.55-33.35 37.75-33.35 37.75-6.9Q37.75-5 38.15-4.35 38.55-3.7 40.3-3.7L40.3-3.7 41.25-3.7 41.25 0ZM52.45 0.6L52.45 0.6Q50.1 0.6 48.15-0.25 46.2-1.1 45.05-2.7 43.9-4.3 43.9-6.55L43.9-6.55Q43.9-9.5 45.97-11.2 48.05-12.9 51.82-13.83 55.6-14.75 60.65-15.3L60.65-15.3Q60.75-18.45 59.4-20.15 58.05-21.85 55.05-21.85L55.05-21.85Q52.8-21.85 51.37-20.83 49.95-19.8 49.55-18L49.55-18 45.5-19.2Q46.5-22.05 49.07-23.63 51.65-25.2 55-25.2L55-25.2Q60.15-25.2 62.52-22.78 64.9-20.35 64.9-15.15L64.9-15.15 64.9-9.35Q64.9-6.25 65.15-4 65.4-1.75 65.75 0L65.75 0 61.9 0 60.9-3.4Q59.8-1.55 57.75-0.48 55.7 0.6 52.45 0.6ZM53.35-2.75L53.35-2.75Q55.3-2.75 57.05-3.45 58.8-4.15 59.9-5.83 61-7.5 61-10.4L61-10.4 61-11.95Q57.2-11.55 54.4-10.98 51.6-10.4 50.07-9.38 48.55-8.35 48.55-6.65L48.55-6.65Q48.55-4.9 49.82-3.83 51.1-2.75 53.35-2.75ZM81.74 0.6L81.74 0.6Q78.19 0.6 75.59-1.07 72.99-2.75 71.59-5.65 70.19-8.55 70.19-12.3L70.19-12.3Q70.19-16 71.67-18.93 73.14-21.85 75.84-23.53 78.54-25.2 82.19-25.2L82.19-25.2Q85.54-25.2 87.94-23.55 90.34-21.9 91.54-19.6L91.54-19.6 87.69-18.2Q86.89-19.7 85.34-20.6 83.79-21.5 81.89-21.5L81.89-21.5Q80.04-21.5 78.39-20.53 76.74-19.55 75.74-17.53 74.74-15.5 74.74-12.35L74.74-12.35Q74.74-9.25 75.77-7.18 76.79-5.1 78.42-4.1 80.04-3.1 81.89-3.1L81.89-3.1Q83.94-3.1 85.47-4.03 86.99-4.95 87.79-6.35L87.79-6.35 91.64-4.95Q90.24-2.55 87.64-0.98 85.04 0.6 81.74 0.6ZM107.34 0.6L107.34 0.6Q103.44 0.6 100.74-1.13 98.04-2.85 96.62-5.78 95.19-8.7 95.19-12.35L95.19-12.35Q95.19-16.3 96.79-19.18 98.39-22.05 101.12-23.63 103.84-25.2 107.24-25.2L107.24-25.2Q110.19-25.2 112.44-24.03 114.69-22.85 116.17-20.88 117.64-18.9 118.32-16.4 118.99-13.9 118.79-11.25L118.79-11.25 99.69-11.25Q99.79-8.15 101.07-6.35 102.34-4.55 104.09-3.83 105.84-3.1 107.34-3.1L107.34-3.1Q109.44-3.1 110.87-3.78 112.29-4.45 113.14-5.55L113.14-5.55 117.19-4.35Q115.84-2.2 113.34-0.8 110.84 0.6 107.34 0.6ZM99.74-14.6L99.74-14.6 114.34-14.6Q114.34-16.35 113.47-17.95 112.59-19.55 111.02-20.58 109.44-21.6 107.24-21.6L107.24-21.6Q105.39-21.6 103.74-20.9 102.09-20.2 101.02-18.65 99.94-17.1 99.74-14.6ZM148.44 0L145.29 0Q142.94 0 141.66-0.48 140.39-0.95 139.91-2.3 139.44-3.65 139.44-6.2L139.44-6.2 139.44-21.45 135.24-21.45 135.24-24.8 139.44-24.8 139.44-31.05 143.64-31.05 143.64-24.8 148.44-24.8 148.44-21.45 143.64-21.45 143.64-6.9Q143.64-5 144.01-4.35 144.39-3.7 146.19-3.7L146.19-3.7 148.44-3.7 148.44 0ZM164.23 0.6L164.23 0.6Q162.08 0.6 159.98-0.15 157.88-0.9 156.16-2.48 154.43-4.05 153.38-6.5 152.33-8.95 152.33-12.3L152.33-12.3Q152.33-15.65 153.38-18.1 154.43-20.55 156.16-22.13 157.88-23.7 159.98-24.45 162.08-25.2 164.23-25.2L164.23-25.2Q166.38-25.2 168.51-24.45 170.63-23.7 172.36-22.13 174.08-20.55 175.11-18.1 176.13-15.65 176.13-12.3L176.13-12.3Q176.13-8.95 175.11-6.5 174.08-4.05 172.36-2.48 170.63-0.9 168.51-0.15 166.38 0.6 164.23 0.6ZM164.23-3.1L164.23-3.1Q166.03-3.1 167.73-4.08 169.43-5.05 170.53-7.08 171.63-9.1 171.63-12.3L171.63-12.3Q171.63-15.5 170.53-17.53 169.43-19.55 167.73-20.53 166.03-21.5 164.23-21.5L164.23-21.5Q162.48-21.5 160.76-20.53 159.03-19.55 157.93-17.53 156.83-15.5 156.83-12.3L156.83-12.3Q156.83-9.1 157.93-7.08 159.03-5.05 160.76-4.08 162.48-3.1 164.23-3.1ZM201.18 0L196.98 0 196.98-21.45 192.78-21.45 192.78-24.8 196.98-24.8 196.98-28.5Q196.98-31.05 197.48-32.55 197.98-34.05 199.43-34.68 200.88-35.3 203.63-35.3L203.63-35.3 206.33-35.3 206.33-31.75 203.73-31.75Q202.13-31.75 201.65-31.1 201.18-30.45 201.18-28.55L201.18-28.55 201.18-24.8 206.33-24.8 206.33-21.45 201.18-21.45 201.18 0ZM215.38-29.5L215.38-29.5Q214.13-29.5 213.2-30.43 212.28-31.35 212.28-32.65L212.28-32.65Q212.28-33.95 213.2-34.85 214.13-35.75 215.38-35.75L215.38-35.75Q216.68-35.75 217.6-34.85 218.53-33.95 218.53-32.65L218.53-32.65Q218.53-31.35 217.6-30.43 216.68-29.5 215.38-29.5ZM217.48 0L213.28 0 213.28-21.45 209.83-21.45 209.83-24.8 217.48-24.8 217.48 0ZM229.17 0L224.97 0 224.97-24.8 228.07-24.8 229.17-21.05Q230.22-22.8 232.12-24 234.02-25.2 237.17-25.2L237.17-25.2Q241.67-25.2 243.52-22.58 245.37-19.95 245.37-15.7L245.37-15.7 245.37 0 241.17 0 241.17-14.45Q241.17-16.35 240.82-17.98 240.47-19.6 239.3-20.6 238.12-21.6 235.72-21.6L235.72-21.6Q232.67-21.6 230.92-19.53 229.17-17.45 229.17-13.45L229.17-13.45 229.17 0ZM260.77 0.6L260.77 0.6Q257.97 0.6 255.52-0.93 253.07-2.45 251.6-5.33 250.12-8.2 250.12-12.3L250.12-12.3Q250.12-16.4 251.6-19.28 253.07-22.15 255.52-23.68 257.97-25.2 260.77-25.2L260.77-25.2Q263.72-25.2 265.72-24.03 267.72-22.85 268.82-20.9L268.82-20.9 268.82-33.4 273.02-33.4 273.02-9.35Q273.02-8.1 273.12-5.68 273.22-3.25 273.87 0L273.87 0 269.92 0 268.82-3.75Q267.72-1.75 265.72-0.58 263.72 0.6 260.77 0.6ZM261.87-3L261.87-3Q265.07-3 267-5.45 268.92-7.9 268.92-12.3L268.92-12.3Q268.92-16.75 267-19.18 265.07-21.6 261.87-21.6L261.87-21.6Q258.67-21.6 256.75-19.18 254.82-16.75 254.82-12.3L254.82-12.3Q254.82-7.9 256.75-5.45 258.67-3 261.87-3ZM294.42 8.05L292.27 8.05 292.27 4.35 293.97 4.35Q295.77 4.35 296.72 4.08 297.67 3.8 298.24 2.88 298.81 1.95 299.37 0.05L299.37 0.05 290.42-24.75 295.06-24.75 301.17-5.65 307.27-24.75 311.87-24.75 303.06 1.1Q302.17 3.75 301.24 5.28 300.31 6.8 298.77 7.43 297.22 8.05 294.42 8.05L294.42 8.05ZM325.66 0.6L325.66 0.6Q323.51 0.6 321.41-0.15 319.31-0.9 317.59-2.48 315.86-4.05 314.81-6.5 313.76-8.95 313.76-12.3L313.76-12.3Q313.76-15.65 314.81-18.1 315.86-20.55 317.59-22.13 319.31-23.7 321.41-24.45 323.51-25.2 325.66-25.2L325.66-25.2Q327.81-25.2 329.94-24.45 332.06-23.7 333.79-22.13 335.51-20.55 336.54-18.1 337.56-15.65 337.56-12.3L337.56-12.3Q337.56-8.95 336.54-6.5 335.51-4.05 333.79-2.48 332.06-0.9 329.94-0.15 327.81 0.6 325.66 0.6ZM325.66-3.1L325.66-3.1Q327.46-3.1 329.16-4.08 330.86-5.05 331.96-7.08 333.06-9.1 333.06-12.3L333.06-12.3Q333.06-15.5 331.96-17.53 330.86-19.55 329.16-20.53 327.46-21.5 325.66-21.5L325.66-21.5Q323.91-21.5 322.19-20.53 320.46-19.55 319.36-17.53 318.26-15.5 318.26-12.3L318.26-12.3Q318.26-9.1 319.36-7.08 320.46-5.05 322.19-4.08 323.91-3.1 325.66-3.1ZM350.81 0.6L350.81 0.6Q347.91 0.6 346.16-0.63 344.41-1.85 343.64-4.03 342.86-6.2 342.86-9L342.86-9 342.86-24.85 347.06-24.85 347.06-10Q347.06-7.25 347.71-5.75 348.36-4.25 349.54-3.68 350.71-3.1 352.26-3.1L352.26-3.1Q355.21-3.1 356.89-5.18 358.56-7.25 358.56-11.2L358.56-11.2 358.56-24.85 362.76-24.85 362.76 0 359.61 0 358.56-3.6Q357.51-1.8 355.71-0.6 353.91 0.6 350.81 0.6ZM373.96 0L369.76 0 369.76-24.8 372.81-24.8 374.16-20.2Q375.46-22.45 377.68-23.83 379.91-25.2 383.01-25.2L383.01-25.2 383.01-20.85Q382.66-20.85 382.28-20.85 381.91-20.85 381.56-20.8L381.56-20.8Q377.31-20.45 375.63-17.85 373.96-15.25 373.96-10.65L373.96-10.65 373.96 0ZM404.95 0L400.75 0 400.75-33.4 404.95-33.4 404.95-21.05Q406-22.8 407.9-24 409.8-25.2 412.95-25.2L412.95-25.2Q417.45-25.2 419.3-22.58 421.15-19.95 421.15-15.7L421.15-15.7 421.15 0 416.95 0 416.95-14.45Q416.95-16.35 416.6-17.98 416.25-19.6 415.08-20.6 413.9-21.6 411.5-21.6L411.5-21.6Q408.45-21.6 406.7-19.53 404.95-17.45 404.95-13.45L404.95-13.45 404.95 0ZM437.8 0.6L437.8 0.6Q435.65 0.6 433.55-0.15 431.45-0.9 429.73-2.48 428-4.05 426.95-6.5 425.9-8.95 425.9-12.3L425.9-12.3Q425.9-15.65 426.95-18.1 428-20.55 429.73-22.13 431.45-23.7 433.55-24.45 435.65-25.2 437.8-25.2L437.8-25.2Q439.95-25.2 442.08-24.45 444.2-23.7 445.93-22.13 447.65-20.55 448.68-18.1 449.7-15.65 449.7-12.3L449.7-12.3Q449.7-8.95 448.68-6.5 447.65-4.05 445.93-2.48 444.2-0.9 442.08-0.15 439.95 0.6 437.8 0.6ZM437.8-3.1L437.8-3.1Q439.6-3.1 441.3-4.08 443-5.05 444.1-7.08 445.2-9.1 445.2-12.3L445.2-12.3Q445.2-15.5 444.1-17.53 443-19.55 441.3-20.53 439.6-21.5 437.8-21.5L437.8-21.5Q436.05-21.5 434.33-20.53 432.6-19.55 431.5-17.53 430.4-15.5 430.4-12.3L430.4-12.3Q430.4-9.1 431.5-7.08 432.6-5.05 434.33-4.08 436.05-3.1 437.8-3.1ZM459.3 0L455.1 0 455.1-24.8 458.2-24.8 459.3-21.05Q460.35-22.8 462.17-24 464-25.2 466.75-25.2L466.75-25.2Q469.6-25.2 471.35-24.05 473.1-22.9 473.9-20.85L473.9-20.85Q475.4-23.15 477.52-24.18 479.65-25.2 482.25-25.2L482.25-25.2Q486.55-25.2 488.4-22.58 490.25-19.95 490.25-15.7L490.25-15.7 490.25 0 486.05 0 486.05-14.45Q486.05-16.35 485.67-17.98 485.3-19.6 484.17-20.6 483.05-21.6 480.75-21.6L480.75-21.6Q478.05-21.6 476.42-19.53 474.8-17.45 474.8-13.45L474.8-13.45 474.8 0 470.6 0 470.6-14.45Q470.6-16.35 470.22-17.98 469.85-19.6 468.72-20.6 467.6-21.6 465.3-21.6L465.3-21.6Q462.6-21.6 460.95-19.53 459.3-17.45 459.3-13.45L459.3-13.45 459.3 0ZM507.15 0.6L507.15 0.6Q503.25 0.6 500.55-1.13 497.85-2.85 496.42-5.78 495-8.7 495-12.35L495-12.35Q495-16.3 496.6-19.18 498.2-22.05 500.92-23.63 503.65-25.2 507.05-25.2L507.05-25.2Q510-25.2 512.25-24.03 514.5-22.85 515.97-20.88 517.45-18.9 518.12-16.4 518.8-13.9 518.6-11.25L518.6-11.25 499.5-11.25Q499.6-8.15 500.87-6.35 502.15-4.55 503.9-3.83 505.65-3.1 507.15-3.1L507.15-3.1Q509.25-3.1 510.67-3.78 512.1-4.45 512.95-5.55L512.95-5.55 517-4.35Q515.65-2.2 513.15-0.8 510.65 0.6 507.15 0.6ZM499.55-14.6L499.55-14.6 514.15-14.6Q514.15-16.35 513.27-17.95 512.4-19.55 510.82-20.58 509.25-21.6 507.05-21.6L507.05-21.6Q505.2-21.6 503.55-20.9 501.9-20.2 500.82-18.65 499.75-17.1 499.55-14.6Z" opacity="1" transform="matrix(1,0,0,1,0,0)" fill="#8cb0bc" class="slogan-text-1" data-fill-palette-color="secondary" id="text-1"></path></svg></g></svg></g></svg></g></svg></g><g></g></svg></g><defs></defs></svg><rect width="395.52" height="133.76952491191815" fill="none" stroke="none" visibility="hidden"></rect></g></svg></g></svg>